HIERARCHY
ROOT Hips
{
  OFFSET 5.84602e-005 68.8428 3.50346
  CHANNELS 6 Xposition Yposition Zposition Zrotation Xrotation Yrotation
  JOINT Spine
  {
    OFFSET 0 8.597 -4.6522
    CHANNELS 3 Zrotation Xrotation Yrotation
    JOINT Spine1
    {
      OFFSET 0 7.8454 0.4098
      CHANNELS 3 Zrotation Xrotation Yrotation
      JOINT Spine2
      {
        OFFSET 0 9.7078 -2.1609
        CHANNELS 3 Zrotation Xrotation Yrotation
        JOINT Neck
        {
          OFFSET 0 21.8761 -0.4549
          CHANNELS 3 Zrotation Xrotation Yrotation
          JOINT Head
          {
            OFFSET 0 12.3537 3.3602
            CHANNELS 3 Zrotation Xrotation Yrotation
            End Site
            {
              OFFSET 0.0001 18.9506 0.5657
            }
          }
        }
        JOINT LeftShoulder
        {
          OFFSET 2.2086 21.1115 7.2329
          CHANNELS 3 Zrotation Xrotation Yrotation
          JOINT LeftArm
          {
            OFFSET 13.1193 3.0282 -4.8998
            CHANNELS 3 Zrotation Xrotation Yrotation
            JOINT LeftForeArm
            {
              OFFSET 27.4081 -0.0973053 -0.2375
              CHANNELS 3 Zrotation Xrotation Yrotation
              JOINT LeftHand
              {
                OFFSET 22.8641 0.0662994 -0.1369
                CHANNELS 3 Zrotation Xrotation Yrotation
                JOINT LeftHandIndex1
                {
                  OFFSET 8.8614 0.775009 2.4612
                  CHANNELS 3 Zrotation Xrotation Yrotation
                  JOINT LeftHandIndex2
                  {
                    OFFSET 3.3146 -0.808304 0.5841
                    CHANNELS 3 Zrotation Xrotation Yrotation
                    JOINT LeftHandIndex3
                    {
                      OFFSET 2.2628 -0.552002 0.3989
                      CHANNELS 3 Zrotation Xrotation Yrotation
                      End Site
                      {
                        OFFSET 1.6102 -0.4807 0.2612
                      }
                    }
                  }
                }
                JOINT LeftHandMiddle1
                {
                  OFFSET 8.9937 0.895004 0.2143
                  CHANNELS 3 Zrotation Xrotation Yrotation
                  JOINT LeftHandMiddle2
                  {
                    OFFSET 4.0984 0.0113983 -0.0242
                    CHANNELS 3 Zrotation Xrotation Yrotation
                    JOINT LeftHandMiddle3
                    {
                      OFFSET 2.2716 0.00689697 -0.0138001
                      CHANNELS 3 Zrotation Xrotation Yrotation
                      End Site
                      {
                        OFFSET 2.0404 -0.1441 0.0027
                      }
                    }
                  }
                }
                JOINT LeftHandRing1
                {
                  OFFSET 8.5234 0.597198 -2.0164
                  CHANNELS 3 Zrotation Xrotation Yrotation
                  JOINT LeftHandRing2
                  {
                    OFFSET 3.7188 -0.188293 -0.2328
                    CHANNELS 3 Zrotation Xrotation Yrotation
                    JOINT LeftHandRing3
                    {
                      OFFSET 2.1191 -0.106598 -0.1332
                      CHANNELS 3 Zrotation Xrotation Yrotation
                      End Site
                      {
                        OFFSET 1.8737 -0.2304 -0.0886
                      }
                    }
                  }
                }
                JOINT LeftHandPinky1
                {
                  OFFSET 7.9094 -0.601089 -3.4825
                  CHANNELS 3 Zrotation Xrotation Yrotation
                  JOINT LeftHandPinky2
                  {
                    OFFSET 2.2874 -0.477005 -0.6314
                    CHANNELS 3 Zrotation Xrotation Yrotation
                    JOINT LeftHandPinky3
                    {
                      OFFSET 1.6774 -0.349396 -0.4633
                      CHANNELS 3 Zrotation Xrotation Yrotation
                      End Site
                      {
                        OFFSET 1.4888 -0.4091 -0.3416
                      }
                    }
                  }
                }
                JOINT LeftHandThumb1
                {
                  OFFSET 1.833 -1.3875 1.3896
                  CHANNELS 3 Zrotation Xrotation Yrotation
                  JOINT LeftHandThumb2
                  {
                    OFFSET 3.4129 -1.121 2.5732
                    CHANNELS 3 Zrotation Xrotation Yrotation
                    JOINT LeftHandThumb3
                    {
                      OFFSET 2.2474 -0.804199 1.6192
                      CHANNELS 3 Zrotation Xrotation Yrotation
                      End Site
                      {
                        OFFSET 1.6527 -0.5689 1.1317
                      }
                    }
                  }
                }
              }
            }
          }
        }
        JOINT RightShoulder
        {
          OFFSET -2.2086 21.1115 7.2329
          CHANNELS 3 Zrotation Xrotation Yrotation
          JOINT RightArm
          {
            OFFSET -13.1216 3.0287 -4.9007
            CHANNELS 3 Zrotation Xrotation Yrotation
            JOINT RightForeArm
            {
              OFFSET -27.4081 -0.0973053 -0.2375
              CHANNELS 3 Zrotation Xrotation Yrotation
              JOINT RightHand
              {
                OFFSET -22.8641 0.0664063 -0.1369
                CHANNELS 3 Zrotation Xrotation Yrotation
                JOINT RightHandIndex1
                {
                  OFFSET -8.8614 0.774994 2.4612
                  CHANNELS 3 Zrotation Xrotation Yrotation
                  JOINT RightHandIndex2
                  {
                    OFFSET -3.3146 -0.808304 0.5841
                    CHANNELS 3 Zrotation Xrotation Yrotation
                    JOINT RightHandIndex3
                    {
                      OFFSET -2.2628 -0.552002 0.3989
                      CHANNELS 3 Zrotation Xrotation Yrotation
                      End Site
                      {
                        OFFSET -1.6102 -0.4807 0.2612
                      }
                    }
                  }
                }
                JOINT RightHandMiddle1
                {
                  OFFSET -8.9937 0.894989 0.2143
                  CHANNELS 3 Zrotation Xrotation Yrotation
                  JOINT RightHandMiddle2
                  {
                    OFFSET -4.0984 0.0113983 -0.0242
                    CHANNELS 3 Zrotation Xrotation Yrotation
                    JOINT RightHandMiddle3
                    {
                      OFFSET -2.2716 0.00691223 -0.0138001
                      CHANNELS 3 Zrotation Xrotation Yrotation
                      End Site
                      {
                        OFFSET -2.0404 -0.1441 0.0027
                      }
                    }
                  }
                }
                JOINT RightHandRing1
                {
                  OFFSET -8.5234 0.597198 -2.0164
                  CHANNELS 3 Zrotation Xrotation Yrotation
                  JOINT RightHandRing2
                  {
                    OFFSET -3.7188 -0.188309 -0.2328
                    CHANNELS 3 Zrotation Xrotation Yrotation
                    JOINT RightHandRing3
                    {
                      OFFSET -2.1191 -0.106598 -0.1332
                      CHANNELS 3 Zrotation Xrotation Yrotation
                      End Site
                      {
                        OFFSET -1.8737 -0.2304 -0.0886
                      }
                    }
                  }
                }
                JOINT RightHandPinky1
                {
                  OFFSET -7.9094 -0.601105 -3.4825
                  CHANNELS 3 Zrotation Xrotation Yrotation
                  JOINT RightHandPinky2
                  {
                    OFFSET -2.2874 -0.477005 -0.6314
                    CHANNELS 3 Zrotation Xrotation Yrotation
                    JOINT RightHandPinky3
                    {
                      OFFSET -1.6774 -0.349396 -0.4633
                      CHANNELS 3 Zrotation Xrotation Yrotation
                      End Site
                      {
                        OFFSET -1.4888 -0.4091 -0.3416
                      }
                    }
                  }
                }
                JOINT RightHandThumb1
                {
                  OFFSET -1.833 -1.38751 1.3896
                  CHANNELS 3 Zrotation Xrotation Yrotation
                  JOINT RightHandThumb2
                  {
                    OFFSET -3.41299 -1.12099 2.5732
                    CHANNELS 3 Zrotation Xrotation Yrotation
                    JOINT RightHandThumb3
                    {
                      OFFSET -2.24741 -0.804108 1.6192
                      CHANNELS 3 Zrotation Xrotation Yrotation
                      End Site
                      {
                        OFFSET -1.6527 -0.5689 1.1317
                      }
                    }
                  }
                }
              }
            }
          }
        }
      }
    }
  }
  JOINT RightUpLeg
  {
    OFFSET -9.1966 3.8861 -0.7581
    CHANNELS 3 Zrotation Xrotation Yrotation
    JOINT RightLeg
    {
      OFFSET -0.7359 -41.0265 0
      CHANNELS 3 Zrotation Xrotation Yrotation
      JOINT RightFoot
      {
        OFFSET 0 -40.2855 0
        CHANNELS 3 Zrotation Xrotation Yrotation
        JOINT RightToeBase
        {
          OFFSET 0 -5.6122 11.7359
          CHANNELS 3 Zrotation Xrotation Yrotation
          End Site
          {
            OFFSET 0 0 7.8731
          }
        }
      }
    }
  }
  JOINT LeftUpLeg
  {
    OFFSET 9.1965 3.8864 -0.7581
    CHANNELS 3 Zrotation Xrotation Yrotation
    JOINT LeftLeg
    {
      OFFSET 0.7359 -41.0268 0
      CHANNELS 3 Zrotation Xrotation Yrotation
      JOINT LeftFoot
      {
        OFFSET 0 -40.2855 0
        CHANNELS 3 Zrotation Xrotation Yrotation
        JOINT LeftToeBase
        {
          OFFSET 0 -5.6122 11.7359
          CHANNELS 3 Zrotation Xrotation Yrotation
          End Site
          {
            OFFSET 0 0 7.8731
          }
        }
      }
    }
  }
}
MOTION
Frames:	4
Frame Time:	0.0333333
-16.5906 2.5839 -2.78573 -180 -89.9981 -180 -5.67445 11.7107 -3.89524 -10.8643 23.7344 -6.78332 -10.8643 23.7344 -6.78331 -10.3257 -5.05652 -14.4933 9.62154 -10.6585 31.1533 -32.8346 12.4814 -1.42436 -24.0758 -74.8461 19.9867 4.22013 60.6237 -20.6086 84.1271 22.8899 -31.975 -3.18055e-015 1.59028e-015 -3.18055e-015 3.18055e-015 0 -3.18055e-015 0 0 -6.36111e-015 -3.18055e-015 1.59028e-015 -3.18055e-015 -0.0146139 -8.74946e-005 4.66289e-007 -3.18055e-015 0 -0 -3.18055e-015 1.59028e-015 -3.18055e-015 -0.0187703 -0.00117757 5.52129e-005 -1.59028e-015 0 -9.54166e-015 -3.18055e-015 1.59028e-015 -3.18055e-015 -0.0122805 -0.0032503 0.000679471 3.18055e-015 1.59028e-015 -3.18055e-015 -3.18055e-015 1.59028e-015 -3.18055e-015 3.18055e-015 0 -3.18055e-015 0 0 -6.36111e-015 21.1467 -32.2405 -37.4516 48.6593 51.3285 -24.4 -80.1144 -0.376214 44.7168 -3.07999 8.53963 8.89099 -1.66586e-008 -1.05344e-007 -1.70042e-006 -1.73937e-016 -3.85145e-016 -0 -1.66586e-008 -1.05344e-007 -1.70042e-006 -1.66586e-008 -1.05344e-007 -1.70042e-006 0.015003 -9.12341e-005 6.20657e-007 -1.66283e-008 -1.05567e-007 -1.70041e-006 -1.66586e-008 -1.05344e-007 -1.70042e-006 0.019004 -0.00119143 -6.08036e-005 -1.66362e-008 -1.05628e-007 -1.70041e-006 -1.66586e-008 -1.05344e-007 -1.70042e-006 0.0122678 -0.00324763 -0.000676311 -1.66803e-008 -1.05533e-007 -1.70041e-006 -1.66586e-008 -1.05344e-007 -1.70042e-006 -1.73937e-016 -3.85145e-016 -0 -1.66586e-008 -1.05344e-007 -1.70042e-006 -76.9888 -23.8085 -63.0883 -158.998 70.1972 152.936 -51.4561 8.94135 64.5342 3.7541e-013 -1.33406e-008 6.66931e-009 37.6116 -79.0201 62.553 51.6631 77.8827 -48.8432 14.489 44.2048 -32.93 6.69812e-007 1.68419e-007 -2.84618e-007 
-16.5906 2.5839 -2.78573 -180 -89.9981 -180 -5.67331 11.7349 -3.90199 -10.8601 23.7833 -6.79566 -10.8601 23.7833 -6.79565 -9.99591 -5.21457 -14.9377 9.84564 -10.8399 31.2108 -32.7102 12.4436 -1.55192 -24.0758 -74.8462 19.9866 4.22008 60.6237 -20.6086 84.1271 22.8898 -31.975 -1.65306e-009 4.49015e-011 -4.42034e-007 1.59028e-015 1.59028e-015 -0 1.65306e-009 -4.48967e-011 4.42034e-007 -1.65306e-009 4.49015e-011 -4.42034e-007 -0.0145985 -8.77096e-005 1.61307e-006 2.63671e-009 -9.53053e-011 4.42034e-007 -1.65306e-009 4.49015e-011 -4.42034e-007 -0.018735 -0.00117456 6.01928e-005 -2.91953e-009 3.80617e-011 -4.4203e-007 -1.65306e-009 4.49015e-011 -4.42034e-007 -0.0122357 -0.00323981 0.000675595 2.4897e-009 1.26101e-010 4.41988e-007 -1.65306e-009 4.49015e-011 -4.42034e-007 1.59028e-015 1.59028e-015 -0 1.65306e-009 -4.48967e-011 4.42034e-007 21.1788 -32.2824 -37.3559 48.6593 51.3285 -24.4 -80.1144 -0.376227 44.7168 -3.07999 8.53963 8.891 -7.28359e-016 2.98177e-016 -3.18055e-015 -1.82714e-009 -4.52796e-009 2.38428e-007 1.82714e-009 4.52796e-009 -2.38428e-007 -7.28359e-016 2.98177e-016 -3.18055e-015 0.0149883 -9.06791e-005 -4.97809e-006 1.32937e-015 -1.05604e-016 3.18055e-015 -7.28359e-016 2.98177e-016 -3.18055e-015 0.0189786 -0.00118988 -6.14688e-005 1.421e-015 4.96962e-017 3.18055e-015 -7.28359e-016 2.98177e-016 -3.18055e-015 0.0122686 -0.00324768 -0.000676454 3.43784e-010 4.8933e-009 -2.38347e-007 -7.28359e-016 2.98177e-016 -3.18055e-015 -1.82714e-009 -4.52796e-009 2.38428e-007 1.82714e-009 4.52796e-009 -2.38428e-007 -76.9255 -23.8898 -62.9864 -158.992 70.1965 152.937 -51.3424 9.0055 64.4917 -8.33583e-010 -6.67053e-009 3.33425e-009 37.6116 -79.0201 62.553 51.6628 77.8826 -48.8429 14.489 44.2048 -32.93 9.56873e-008 2.40598e-008 -4.06597e-008 
-16.5906 2.58389 -2.78573 -180 -89.9981 -180 -5.67224 11.7576 -3.90827 -10.8561 23.8289 -6.80714 -10.8561 23.8289 -6.80714 -9.66758 -5.37464 -15.3808 10.07 -11.0211 31.2691 -32.5945 12.4083 -1.67064 -24.0759 -74.8462 19.9866 4.22014 60.6237 -20.6086 84.1271 22.8899 -31.975 1.59028e-015 -1.59028e-015 6.36111e-015 -0 0 3.18055e-015 -3.18055e-015 0 -3.18055e-015 1.59028e-015 -1.59028e-015 6.36111e-015 -0.0146246 -8.82175e-005 -1.7318e-006 -8.82781e-032 1.59028e-015 3.18055e-015 1.59028e-015 -1.59028e-015 6.36111e-015 -0.0187628 -0.00117669 5.57995e-005 -3.18055e-015 3.18055e-015 6.36111e-015 1.59028e-015 -1.59028e-015 6.36111e-015 -0.0122614 -0.00324688 0.000677455 3.18055e-015 -3.18055e-015 -0 1.59028e-015 -1.59028e-015 6.36111e-015 -0 0 3.18055e-015 -3.18055e-015 0 -3.18055e-015 21.2087 -32.3215 -37.2668 48.6593 51.3285 -24.4 -80.1144 -0.376223 44.7168 -3.07999 8.53963 8.891 -1.1728e-009 3.4625e-009 2.42807e-007 1.1728e-009 -3.4625e-009 -2.42807e-007 -1.1728e-009 3.46251e-009 2.42807e-007 -1.1728e-009 3.4625e-009 2.42807e-007 0.0149881 -9.07826e-005 -1.59075e-006 -3.52532e-016 1.36664e-016 3.18055e-015 -1.1728e-009 3.4625e-009 2.42807e-007 0.0190068 -0.00119171 -5.76482e-005 -6.91087e-016 2.42269e-016 -0 -1.1728e-009 3.4625e-009 2.42807e-007 0.0122544 -0.00324408 -0.000676216 4.00675e-016 1.45982e-016 -3.18055e-015 -1.1728e-009 3.4625e-009 2.42807e-007 1.1728e-009 -3.4625e-009 -2.42807e-007 -1.1728e-009 3.46251e-009 2.42807e-007 -76.8531 -23.9837 -62.8861 -159.006 70.198 152.935 -51.2363 9.06518 64.4519 -8.35533e-010 6.66988e-009 -1.17034e-014 37.6116 -79.0201 62.553 51.6628 77.8827 -48.8429 14.4891 44.2048 -32.93 2.87062e-007 7.21795e-008 -1.21979e-007 
-16.5906 2.58388 -2.78573 -180 -89.9981 -180 -5.67114 11.7802 -3.91454 -10.852 23.8745 -6.81863 -10.852 23.8745 -6.81862 -9.34069 -5.53735 -15.8227 10.2947 -11.202 31.3282 -32.4789 12.3726 -1.78927 -24.0759 -74.8462 19.9866 4.22012 60.6237 -20.6086 84.1271 22.8898 -31.975 4.30613e-007 -7.24694e-007 -3.49634e-007 -1.59028e-015 -1.59028e-015 -0 -4.33839e-008 7.47465e-007 -3.11328e-006 4.30613e-007 -7.24694e-007 -3.49634e-007 -0.014611 -8.79708e-005 4.34922e-007 -4.31704e-008 7.47864e-007 -3.11319e-006 4.30613e-007 -7.24694e-007 -3.49634e-007 -0.0187758 -0.00117915 5.18704e-005 -4.31381e-008 7.47993e-007 -3.11316e-006 4.30613e-007 -7.24694e-007 -3.49634e-007 -0.0122533 -0.00324333 0.000676594 -4.10728e-007 7.37059e-007 -5.51367e-007 4.30613e-007 -7.24694e-007 -3.49634e-007 -1.59028e-015 -1.59028e-015 -0 -4.33839e-008 7.47465e-007 -3.11328e-006 21.2388 -32.3604 -37.1775 48.6593 51.3285 -24.4 -80.1144 -0.376221 44.7168 -3.07999 8.53963 8.89099 4.36845e-007 4.50444e-008 1.07292e-008 4.36845e-007 4.50444e-008 1.07292e-008 4.36845e-007 4.50444e-008 1.07292e-008 4.36845e-007 4.50444e-008 1.07292e-008 0.0149909 -9.09105e-005 8.66007e-007 4.36848e-007 4.50458e-008 1.0723e-008 4.36845e-007 4.50444e-008 1.07292e-008 0.0190048 -0.00119141 -5.95615e-005 4.36849e-007 4.50461e-008 1.07172e-008 4.36845e-007 4.50444e-008 1.07292e-008 0.0122664 -0.00324704 -0.00067447 4.36847e-007 4.50474e-008 1.07119e-008 4.36845e-007 4.50444e-008 1.07292e-008 4.36845e-007 4.50444e-008 1.07292e-008 4.36845e-007 4.50444e-008 1.07292e-008 -76.7975 -24.054 -62.7924 -158.995 70.1967 152.936 -51.1303 9.1248 64.4121 -8.09387e-010 6.52914e-009 -1.77033e-009 37.6116 -79.0201 62.553 51.6628 77.8827 -48.843 14.489 44.2048 -32.93 7.65499e-007 1.92479e-007 -3.25278e-007 
